<?xml version="1.0" encoding="utf-8"?>
<!-- Generator: Adobe Illustrator 16.0.0, SVG Export Plug-In . SVG Version: 6.00 Build 0)  -->
<!DOCTYPE svg PUBLIC "-//W3C//DTD SVG 1.1//EN" "http://www.w3.org/Graphics/SVG/1.1/DTD/svg11.dtd">
<svg version="1.1" id="Layer_1" xmlns="http://www.w3.org/2000/svg" xmlns:xlink="http://www.w3.org/1999/xlink" x="0px" y="0px"
	 width="20px" height="20px" viewBox="0 0 20 20" enable-background="new 0 0 20 20" xml:space="preserve">
<g>
	
		<linearGradient id="SVGID_1_" gradientUnits="userSpaceOnUse" x1="256" y1="-228.6816" x2="256" y2="-209.2969" gradientTransform="matrix(1 0 0 -1 -246 -209)">
		<stop  offset="0" style="stop-color:#FFFFFF"/>
		<stop  offset="0.7438" style="stop-color:#88C8CE"/>
	</linearGradient>
	<ellipse fill="url(#SVGID_1_)" cx="10" cy="9.989" rx="9.666" ry="9.692"/>
	<path fill="#A15925" d="M7.37,18.442c-0.225-0.055,5.566,2.271,9.398-3.378c0,0,3.566-6.267-2.079-10.921l-2.713-1.726
		c0,0-1.746-1.56,0.446-1.913h0.031c0.011,0.002,0.021,0.004,0.033,0.007c4.367,0.962,7.18,4.805,7.18,9.45
		c0,5.37-4.365,9.721-9.752,9.721c-5.386,0-9.417-4.316-9.579-9.683C0.317,9.412,0.793,6.546,0.793,6.546S3.58,4.331,7.146,6.17
		c0,0,1.485,1.11,3.678,3.745c0,0,2.192,1.772,2.823,2.148c0,0,0.668,0.3,1.115,0.3c0,0,0.147,0.45-0.187,0.603
		c0,0-0.668,0.374-0.706,0.599c0,0-0.706,0.188-1.374,0.188H10.75c0,0-2.196,0-2.956-0.452c0,0-2.58-0.9-3.323,0.302
		C4.471,13.603,3.078,17.359,7.37,18.442z"/>
	<path fill="#010101" d="M13.262,3.236c0,0,1.087-1.061,1.216-1.519c0.128-0.459,1.021,0.301,1.021,0.301l1.435,1.218
		c0,0-1.364,1.344-1.837,1.263C14.626,4.419,13.262,3.236,13.262,3.236z"/>
	<path fill="#010101" d="M17.046,7.013c0,0,1.29,0.146,1.587-0.555c0.011-0.027,0.022-0.056,0.03-0.087
		c0.223-0.801,0.933,2.441,0.933,2.441s-1.222,0.789-1.783,0.712C17.813,9.524,17.36,7.255,17.046,7.013z"/>
	<path fill="#010101" d="M17.708,12.338c0,0,0.56,0.915,1.451,0.513l-1.14,2.877c0,0-1.352-0.468-1.252-0.663
		C16.868,14.874,17.644,12.709,17.708,12.338z"/>
	<path fill="#010101" d="M14.46,17.47c0,0,0.284,0.209,0.424,0.887c0.138,0.677-4.617,1.575-5.013,1.499
		c-0.396-0.072,0.272-0.986,0.272-0.986S13.872,18.334,14.46,17.47z"/>
	<ellipse fill="none" stroke="#010101" stroke-width="0.6218" stroke-miterlimit="10" cx="10" cy="9.989" rx="9.666" ry="9.692"/>
	<path fill="#9E755B" d="M5.537,5.52c0,0-0.26-0.875-0.879-0.826c0,0-0.843,0.175-0.756,0.757C3.901,5.451,5.128,5.469,5.537,5.52z"
		/>
	<path fill="#605759" d="M10.564,10.735c-0.062-0.099-0.148-1.3-0.148-1.3c0.198-0.013,3.11,2.551,3.11,2.551l0.326,0.847
		c0,0,0.291,0.595-0.326,0.808C12.908,13.854,10.8,13.68,10.8,13.68v-1.466c-0.161-0.727-1.969-1.928-1.969-2.003
		c0,0,0.012-0.713,0.062-0.838c0.05-0.125,0.124,0.163,0.186,0.157C9.14,9.523,10.564,10.735,10.564,10.735z"/>
	<ellipse fill="#9E755B" cx="8.335" cy="10.056" rx="1.077" ry="1.088"/>
	<path fill="#A15925" d="M8.831,9.035v0.576c0,0,0.532,0.125,0.805,0S9.233,8.985,9.233,8.985L8.831,9.035z"/>
	<circle fill="#010101" cx="8.335" cy="9.915" r="0.413"/>
	<circle fill="#FFFFFF" cx="8.224" cy="9.802" r="0.113"/>
	<path fill="#010101" d="M13.525,11.986c0,0-0.844,0.132-0.565,0.564s0.521,0.646,0.464,0.883c-0.056,0.236,0.102,0.207,0.102,0.207
		s0.109,0.09,0.264-0.006c0.101-0.066,0.221-0.293,0.344-0.376c0.307-0.213,0.667-0.445,0.667-0.445l-0.037-0.45L13.525,11.986z"/>
	<g>
		<ellipse fill="#9E755B" cx="2.751" cy="7.375" rx="1.24" ry="1.253"/>
		<path fill="#A15925" d="M2.269,6.617c0.507-0.33,1.219-0.123,1.592,0.461c0.373,0.585,0.263,1.326-0.244,1.655
			c-0.507,0.33-1.22,0.123-1.592-0.462C1.652,7.688,1.762,6.947,2.269,6.617z"/>
	</g>
	<g>
		<ellipse fill="#9E755B" cx="2.96" cy="7.813" rx="0.768" ry="0.776"/>
		<ellipse fill="#A15925" cx="3.332" cy="8.364" rx="0.768" ry="0.776"/>
	</g>
</g>
</svg>
