<?xml version="1.0" encoding="utf-8"?>
<!-- Generator: Adobe Illustrator 16.0.0, SVG Export Plug-In . SVG Version: 6.00 Build 0)  -->
<!DOCTYPE svg PUBLIC "-//W3C//DTD SVG 1.1//EN" "http://www.w3.org/Graphics/SVG/1.1/DTD/svg11.dtd">
<svg version="1.1" id="Layer_1" xmlns="http://www.w3.org/2000/svg" xmlns:xlink="http://www.w3.org/1999/xlink" x="0px" y="0px"
	 width="50px" height="50px" viewBox="0 0 50 50" enable-background="new 0 0 50 50" xml:space="preserve">
<g>
	<path fill="#435E2F" d="M49.971,25c0-13.792-11.18-24.972-24.971-24.972C11.208,0.028,0.029,11.208,0.029,25
		c0,12.464,9.132,22.795,21.07,24.668V32.219h-6.341V25h6.341v-5.502c0-6.258,3.728-9.715,9.43-9.715
		c2.732,0,5.592,0.488,5.592,0.488v6.145h-3.148c-3.103,0-4.07,1.925-4.07,3.9V25h6.927l-1.106,7.219h-5.818v17.449
		C40.84,47.795,49.971,37.464,49.971,25z"/>
	<path fill="#FFFFFF" d="M34.721,32.219L35.828,25h-6.926v-4.684c0-1.976,0.968-3.9,4.07-3.9h3.147v-6.145
		c0,0-2.858-0.488-5.591-0.488c-5.704,0-9.431,3.458-9.431,9.715V25h-6.341v7.219h6.341v17.449c1.271,0.2,2.573,0.303,3.901,0.303
		c1.327,0,2.63-0.103,3.901-0.303V32.219H34.721z"/>
</g>
<g>
	<ellipse fill="#435E2F" cx="25" cy="25.3" rx="24.9" ry="25.2"/>
	<g>
		<g>
			<ellipse fill="#FFFFFF" cx="32.729" cy="17.499" rx="1.713" ry="1.733"/>
			<path fill="#FFFFFF" d="M25.12,17.987c-3.965,0-7.189,3.265-7.189,7.276s3.225,7.276,7.189,7.276c3.965,0,7.19-3.265,7.19-7.276
				S29.085,17.987,25.12,17.987z M25.12,29.925c-2.54,0-4.605-2.09-4.605-4.661s2.065-4.66,4.605-4.66s4.604,2.089,4.604,4.66
				S27.659,29.925,25.12,29.925z"/>
			<path fill="#FFFFFF" d="M30.827,40.038H19.171c-4.835,0-8.77-3.981-8.77-8.874V19.366c0-4.895,3.935-8.875,8.77-8.875h11.656
				c4.837,0,8.771,3.981,8.771,8.875v11.798C39.598,36.057,35.664,40.038,30.827,40.038z M19.171,13.27
				c-3.321,0-6.022,2.734-6.022,6.095v11.798c0,3.358,2.701,6.093,6.022,6.093h11.656c3.321,0,6.024-2.734,6.024-6.093V19.366
				c0-3.361-2.703-6.095-6.024-6.095H19.171V13.27z"/>
		</g>
	</g>
</g>
</svg>
