<?xml version="1.0" encoding="utf-8"?>
<!-- Generator: Adobe Illustrator 16.0.0, SVG Export Plug-In . SVG Version: 6.00 Build 0)  -->
<!DOCTYPE svg PUBLIC "-//W3C//DTD SVG 1.1//EN" "http://www.w3.org/Graphics/SVG/1.1/DTD/svg11.dtd">
<svg version="1.1" id="Layer_1" xmlns="http://www.w3.org/2000/svg" xmlns:xlink="http://www.w3.org/1999/xlink" x="0px" y="0px"
	 width="465.415px" height="133.957px" viewBox="0 0 465.415 133.957" enable-background="new 0 0 465.415 133.957"
	 xml:space="preserve">
<g>
	<linearGradient id="SVGID_1_" gradientUnits="userSpaceOnUse" x1="67.123" y1="131.2056" x2="67.123" y2="2.0815">
		<stop  offset="0" style="stop-color:#FFFFFF"/>
		<stop  offset="0.7438" style="stop-color:#87C7CD"/>
	</linearGradient>
	<ellipse fill="url(#SVGID_1_)" cx="67.123" cy="66.645" rx="65.041" ry="64.561"/>
	<path fill="#A05825" d="M49.417,122.954c-1.511-0.379,37.459,15.119,63.247-22.498c0,0,24-41.75-14-72.75l-18.25-11.5
		c0,0-11.75-10.389,3-12.748h0.209c0.074,0.016,0.149,0.031,0.225,0.048c29.391,6.409,48.316,32.009,48.316,62.95
		c0,35.762-29.381,64.75-65.625,64.75S3.165,102.45,2.082,66.706c-0.119-3.914,3.083-23,3.083-23s18.75-14.75,42.75-2.5
		c0,0,10,7.391,24.75,24.945c0,0,14.75,11.805,19,14.305c0,0,4.5,2,7.5,2c0,0,1,3-1.25,4c0,0-4.5,2.5-4.75,4
		c0,0-4.75,1.25-9.25,1.25h-11.75c0,0-14.778,0-19.889-3c0,0-17.361-6-22.361,2C29.915,90.706,20.539,115.737,49.417,122.954z"/>
	<path d="M89.068,21.659c0,0,7.318-7.063,8.18-10.119s6.88,2.008,6.88,2.008l9.647,8.111c0,0-9.18,8.948-12.354,8.414
		C98.248,29.54,89.068,21.659,89.068,21.659z"/>
	<path d="M114.531,46.819c0,0,8.682,0.976,10.679-3.697c0.079-0.186,0.147-0.379,0.204-0.582c1.5-5.334,6.273,16.26,6.273,16.26
		s-8.217,5.255-11.995,4.748C119.692,63.547,116.646,48.432,114.531,46.819z"/>
	<path d="M118.986,82.288c0,0,3.762,6.084,9.762,3.418l-7.666,19.168c0,0-9.094-3.133-8.418-4.418
		C113.341,99.17,118.556,84.752,118.986,82.288z"/>
	<path d="M97.127,116.465c0,0,1.922,1.402,2.854,5.904c0.933,4.504-31.066,10.504-33.733,10.004s1.829-6.586,1.829-6.586
		S93.174,122.223,97.127,116.465z"/>
	
		<ellipse fill="none" stroke="#000000" stroke-width="4.1631" stroke-miterlimit="10" cx="67.123" cy="66.645" rx="65.041" ry="64.561"/>
	<path fill="#9E745A" d="M37.082,36.874c0,0-1.75-5.834-5.917-5.5c0,0-5.671,1.169-5.085,5.043
		C26.079,36.417,34.332,36.54,37.082,36.874z"/>
	<path fill="#5F5658" d="M70.914,71.62c-0.416-0.668-1-8.669-1-8.669c1.333-0.083,20.929,16.991,20.929,16.991l2.194,5.637
		c0,0,1.961,3.957-2.194,5.389c-4.155,1.43-18.345,0.246-18.345,0.246v-9.76c-1.083-4.834-13.25-12.834-13.25-13.334
		c0,0,0.083-4.746,0.417-5.58s0.833,1.084,1.25,1.042S70.914,71.62,70.914,71.62z"/>
	<circle fill="#9E745A" cx="55.915" cy="67.096" r="7.25"/>
	<path fill="#A05825" d="M59.248,60.29v3.834c0,0,3.583,0.833,5.417,0c1.833-0.834-2.708-4.168-2.708-4.168L59.248,60.29z"/>
	<circle cx="55.915" cy="66.151" r="2.75"/>
	<circle fill="#FFFFFF" cx="55.165" cy="65.401" r="0.75"/>
	<path d="M90.843,79.942c0,0-5.679,0.889-3.804,3.764s3.509,4.299,3.125,5.875c-0.383,1.576,0.679,1.387,0.679,1.387
		s0.735,0.588,1.772-0.053c0.68-0.418,1.49-1.936,2.309-2.496c2.068-1.416,4.492-2.961,4.492-2.961l-0.252-3.002L90.843,79.942z"/>
	<g>
		<circle fill="#9E745A" cx="18.338" cy="49.228" r="8.344"/>
		
			<ellipse transform="matrix(0.841 -0.541 0.541 0.841 -24.5968 18.7642)" fill="#A05825" cx="19.628" cy="51.232" rx="7.345" ry="8.381"/>
	</g>
	<g>
		<circle fill="#9E745A" cx="19.748" cy="52.148" r="5.167"/>
		<circle fill="#A05825" cx="22.248" cy="55.815" r="5.167"/>
	</g>
</g>
<g>
	<g>
		<path fill="#FFFFFF" d="M155.441,49.257l-0.854,26.517l0.731,15.849h-8.533l0.731-14.813l-0.731-26.029L155.441,49.257z"/>
		<path fill="#FFFFFF" d="M161.72,97.658c0-3.577,3.331-6.38,9.997-8.412c-1.585-0.813-2.378-1.869-2.378-3.17
			c0-0.528,0.203-1.057,0.609-1.585s0.996-1.076,1.769-1.646v-0.487c-2.927,0-5.253-0.813-6.98-2.438
			c-1.728-1.625-2.59-3.799-2.59-6.522c0-3.535,1.441-6.613,4.327-9.234s6.299-3.932,10.241-3.932c1.016,0,2.499,0.203,4.45,0.609
			c1.95,0.406,3.86,0.609,5.729,0.609h4.694l-0.61,5.304l-4.571-0.549c0.405,1.179,0.609,2.52,0.609,4.022
			c0,1.505-0.356,2.998-1.066,4.48c-0.712,1.484-1.565,2.673-2.561,3.566c-0.996,0.895-1.991,1.677-2.987,2.347
			c-0.996,0.671-1.85,1.26-2.56,1.768c-0.712,0.509-1.067,0.966-1.067,1.372c0,0.772,0.813,1.442,2.438,2.012
			c4.308,1.747,7.224,3.23,8.748,4.449c1.523,1.22,2.285,2.723,2.285,4.511c0,3.008-1.514,5.477-4.541,7.407
			c-3.027,1.929-6.635,2.895-10.82,2.895s-7.427-0.67-9.723-2.011C162.867,101.68,161.72,99.892,161.72,97.658z M180.129,72.055
			c0-1.99-0.448-3.453-1.342-4.389c-0.894-0.935-2.296-1.402-4.206-1.402c-3.698,0-5.547,1.819-5.547,5.456
			c0,3.638,1.971,5.455,5.913,5.455C178.4,77.175,180.129,75.469,180.129,72.055z M182.323,95.646c0-0.731-0.387-1.413-1.158-2.042
			c-0.772-0.631-2.154-1.372-4.146-2.226c-2.967,0.813-5.009,1.564-6.126,2.256c-1.118,0.69-1.677,1.544-1.677,2.561
			c0,1.015,0.559,1.838,1.677,2.469c1.117,0.629,2.672,0.944,4.663,0.944c1.99,0,3.616-0.365,4.877-1.098
			C181.692,97.779,182.323,96.824,182.323,95.646z"/>
		<path fill="#FFFFFF" d="M202.134,91.623c-2.194,0-3.973-0.721-5.334-2.164c-1.362-1.442-2.042-3.342-2.042-5.699l0.365-7.011
			l-0.67-14.629l8.168-1.524l-0.792,18.531c0,1.748,0.314,3.027,0.944,3.84c0.63,0.813,1.636,1.22,3.018,1.22
			c1.381,0,3.292-0.69,5.73-2.073v-3.657l-0.671-16.031l8.229-1.524l-0.731,15.239l0.061,4.999c0,2.601,0.671,5.222,2.012,7.863
			l-6.34,2.804c-1.341-2.641-2.154-4.755-2.438-6.339C207.985,89.571,204.815,91.623,202.134,91.623z"/>
		<path fill="#FFFFFF" d="M226.12,89.336c-1.524-1.523-2.286-3.575-2.286-6.156c0-2.58,1.179-4.815,3.535-6.705
			s5.222-2.835,8.596-2.835h4.145v-1.036c0-1.991-0.406-3.353-1.219-4.084c-0.813-0.731-2.338-1.098-4.572-1.098
			c-0.935,0-2.042,0.193-3.322,0.579c-1.279,0.387-2.712,0.986-4.297,1.799l-1.768-4.816c1.746-1.219,3.87-2.316,6.37-3.291
			c2.499-0.976,4.561-1.463,6.187-1.463c6.38,0,9.57,3.089,9.57,9.265v11.948c0,2.276,0.711,4.815,2.134,7.619l-6.462,2.743
			c-1.016-1.95-1.768-3.697-2.255-5.242c-2.235,3.374-5.06,5.06-8.474,5.06C229.604,91.623,227.644,90.861,226.12,89.336z
			 M234.563,85.405c1.625,0,3.475-0.832,5.547-2.499v-4.084c-2.154-0.488-3.901-0.731-5.242-0.731c-2.56,0-3.84,1.138-3.84,3.413
			c0,1.18,0.324,2.124,0.975,2.835S233.505,85.405,234.563,85.405z"/>
		<path fill="#FFFFFF" d="M253.459,85.587l12.862-18.348l-13.472,0.914l1.402-7.681l10.424,0.671l10.18-0.731l-1.036,6.34
			l-12.923,18.408l14.813-0.853l-1.342,7.681l-10.362-0.671l-11.582,0.671L253.459,85.587z"/>
		<path fill="#FFFFFF" d="M287.229,91.623c-2.194,0-3.973-0.721-5.334-2.164c-1.362-1.442-2.042-3.342-2.042-5.699l0.365-7.011
			l-0.67-14.629l8.168-1.524l-0.792,18.531c0,1.748,0.314,3.027,0.944,3.84c0.63,0.813,1.636,1.22,3.018,1.22
			c1.381,0,3.292-0.69,5.73-2.073v-3.657l-0.671-16.031l8.229-1.524l-0.731,15.239l0.061,4.999c0,2.601,0.671,5.222,2.012,7.863
			l-6.34,2.804c-1.341-2.641-2.154-4.755-2.438-6.339C293.081,89.571,289.911,91.623,287.229,91.623z"/>
		<path fill="#FFFFFF" d="M316.854,56.572l0.671-7.01h28.954l-0.67,7.01l-10.606-0.914l-0.244,20.116l0.731,15.849h-8.534
			l0.731-14.813l-0.244-21.092L316.854,56.572z"/>
		<path fill="#FFFFFF" d="M349.344,62.18l7.376-1.585c0.365,3.13,0.609,6.096,0.731,8.899c3.697-5.729,7.172-8.595,10.424-8.595
			l-0.671,9.51c-2.357,0-4.217,0.213-5.578,0.64s-2.753,1.271-4.175,2.53v2.194l0.67,14.324l-8.168,1.524l0.731-14.813
			C350.521,71.365,350.075,66.488,349.344,62.18z"/>
		<path fill="#FFFFFF" d="M371.928,89.336c-1.524-1.523-2.286-3.575-2.286-6.156c0-2.58,1.179-4.815,3.535-6.705
			s5.222-2.835,8.596-2.835h4.145v-1.036c0-1.991-0.406-3.353-1.219-4.084c-0.813-0.731-2.338-1.098-4.572-1.098
			c-0.935,0-2.042,0.193-3.322,0.579c-1.279,0.387-2.712,0.986-4.297,1.799l-1.768-4.816c1.746-1.219,3.87-2.316,6.37-3.291
			c2.499-0.976,4.561-1.463,6.187-1.463c6.38,0,9.57,3.089,9.57,9.265v11.948c0,2.276,0.711,4.815,2.134,7.619l-6.462,2.743
			c-1.016-1.95-1.768-3.697-2.255-5.242c-2.235,3.374-5.06,5.06-8.474,5.06C375.412,91.623,373.451,90.861,371.928,89.336z
			 M380.37,85.405c1.625,0,3.475-0.832,5.547-2.499v-4.084c-2.154-0.488-3.901-0.731-5.242-0.731c-2.56,0-3.84,1.138-3.84,3.413
			c0,1.18,0.324,2.124,0.975,2.835S379.313,85.405,380.37,85.405z"/>
		<path fill="#FFFFFF" d="M410.665,84.002h0.792l2.012-8.351l3.292-15.057l7.559,0.914l-4.572,15.118l-3.84,14.264l-10.424,0.914
			l-3.597-14.813l-4.389-14.813l8.29-1.524l2.621,13.411L410.665,84.002z"/>
		<path fill="#FFFFFF" d="M439.314,85.405c1.178,0,2.417-0.305,3.719-0.914c1.3-0.609,2.316-1.22,3.048-1.829l1.097-0.914
			l2.805,3.413c-0.407,0.692-1.037,1.484-1.89,2.378c-0.854,0.895-1.718,1.656-2.591,2.286c-0.875,0.63-2.033,1.199-3.475,1.706
			c-1.443,0.508-2.937,0.763-4.48,0.763c-3.292,0-5.974-1.25-8.047-3.749c-2.072-2.499-3.108-5.72-3.108-9.662
			c0-4.957,1.442-9.306,4.328-13.045c2.885-3.738,6.258-5.607,10.119-5.607c2.966,0,5.272,0.833,6.918,2.499
			c1.646,1.667,2.469,4.003,2.469,7.01c0,1.789-0.305,3.82-0.914,6.096l-1.219,1.28l-15.24,1.402
			C433.544,83.11,435.697,85.405,439.314,85.405z M439.314,66.508c-1.789,0-3.292,0.722-4.511,2.164s-1.931,3.282-2.134,5.517
			l10.363-1.28c0.122-0.935,0.183-1.707,0.183-2.316C443.216,67.871,441.915,66.508,439.314,66.508z"/>
		<path fill="#FFFFFF" d="M463.881,44.442l-0.793,31.332l0.671,14.324l-8.229,1.524l0.731-14.813l-0.731-30.845L463.881,44.442z"/>
	</g>
</g>
</svg>
