<?xml version="1.0" encoding="utf-8"?>
<!-- Generator: Adobe Illustrator 16.0.0, SVG Export Plug-In . SVG Version: 6.00 Build 0)  -->
<!DOCTYPE svg PUBLIC "-//W3C//DTD SVG 1.1//EN" "http://www.w3.org/Graphics/SVG/1.1/DTD/svg11.dtd">
<svg version="1.1" id="Layer_1" xmlns="http://www.w3.org/2000/svg" xmlns:xlink="http://www.w3.org/1999/xlink" x="0px" y="0px"
	 width="50px" height="50px" viewBox="0 0 50 50" enable-background="new 0 0 50 50" xml:space="preserve">
<g>
	<circle fill="#435E2F" cx="25" cy="24.965" r="24.778"/>
	<path fill="#FFFFFF" d="M37.867,22.109c-0.253,0.025-0.509,0.038-0.763,0.039c-2.794,0.001-5.399-1.407-6.928-3.744v12.75
		c0,5.203-4.22,9.424-9.423,9.424c-5.205,0-9.424-4.221-9.424-9.424c0-5.205,4.219-9.423,9.424-9.423l0,0
		c0.195,0,0.389,0.018,0.583,0.029v4.644c-0.194-0.024-0.384-0.059-0.583-0.059c-2.656,0-4.81,2.153-4.81,4.809
		c0,2.658,2.153,4.81,4.81,4.81s5.003-2.092,5.003-4.75l0.046-21.653h4.442c0.418,3.983,3.63,7.096,7.625,7.388v5.16"/>
</g>
</svg>
