<?xml version="1.0" encoding="utf-8"?>
<!-- Generator: Adobe Illustrator 16.0.0, SVG Export Plug-In . SVG Version: 6.00 Build 0)  -->
<!DOCTYPE svg PUBLIC "-//W3C//DTD SVG 1.1//EN" "http://www.w3.org/Graphics/SVG/1.1/DTD/svg11.dtd">
<svg version="1.1" id="Layer_1" xmlns="http://www.w3.org/2000/svg" xmlns:xlink="http://www.w3.org/1999/xlink" x="0px" y="0px"
	 width="50px" height="50px" viewBox="0 0 50 50" enable-background="new 0 0 50 50" xml:space="preserve">
<g>
	<circle fill="#435E2F" cx="25" cy="25" r="25.091"/>
	<path fill="#FFFFFF" d="M38.863,16.404c-0.872,0.393-1.829,0.632-2.769,0.79c0.446-0.076,1.099-0.881,1.36-1.207
		c0.399-0.497,0.731-1.063,0.919-1.675c0.023-0.048,0.04-0.108-0.008-0.144c-0.06-0.025-0.097-0.012-0.147,0.012
		c-1.044,0.561-2.127,0.967-3.28,1.256c-0.093,0.023-0.165,0-0.225-0.06c-0.096-0.108-0.184-0.21-0.288-0.293
		c-0.483-0.412-1.001-0.736-1.589-0.975c-0.768-0.313-1.609-0.445-2.436-0.392c-0.81,0.052-1.6,0.279-2.314,0.653
		c-0.718,0.375-1.354,0.896-1.865,1.524c-0.528,0.65-0.915,1.418-1.114,2.231c-0.192,0.786-0.176,1.563-0.058,2.356
		c0.016,0.131,0.004,0.149-0.114,0.131c-4.506-0.671-8.242-2.283-11.274-5.739c-0.131-0.149-0.203-0.149-0.31,0.012
		c-1.328,1.989-0.684,5.185,0.973,6.755c0.221,0.209,0.45,0.419,0.694,0.611c-0.091,0.018-1.193-0.102-2.177-0.611
		c-0.131-0.083-0.198-0.035-0.21,0.114c-0.011,0.215,0.007,0.413,0.037,0.646c0.255,2.016,1.65,3.881,3.563,4.608
		c0.228,0.096,0.478,0.18,0.722,0.221c-0.436,0.096-0.883,0.164-2.134,0.066c-0.155-0.029-0.214,0.049-0.155,0.199
		c0.94,2.557,2.966,3.316,4.484,3.752c0.203,0.035,0.405,0.035,0.61,0.084c-0.014,0.018-0.025,0.018-0.037,0.033
		c-0.503,0.768-2.249,1.342-3.062,1.627c-1.478,0.516-3.087,0.748-4.65,0.594c-0.25-0.039-0.302-0.035-0.371,0
		c-0.068,0.043-0.008,0.104,0.072,0.166c0.316,0.209,0.64,0.396,0.968,0.574c0.992,0.525,2.026,0.945,3.109,1.244
		c5.585,1.545,11.877,0.406,16.074-3.76c3.294-3.271,4.446-7.784,4.446-12.303c0-0.176,0.209-0.273,0.331-0.368
		c0.858-0.644,1.551-1.414,2.188-2.275c0.146-0.192,0.146-0.364,0.146-0.436c0-0.012,0-0.023,0-0.023
		C38.975,16.332,38.975,16.353,38.863,16.404z"/>
</g>
</svg>
