<?xml version="1.0" encoding="utf-8"?>
<!-- Generator: Adobe Illustrator 16.0.0, SVG Export Plug-In . SVG Version: 6.00 Build 0)  -->
<!DOCTYPE svg PUBLIC "-//W3C//DTD SVG 1.1//EN" "http://www.w3.org/Graphics/SVG/1.1/DTD/svg11.dtd">
<svg version="1.1" id="Layer_1" xmlns="http://www.w3.org/2000/svg" xmlns:xlink="http://www.w3.org/1999/xlink" x="0px" y="0px"
	 width="50px" height="50px" viewBox="0 0 50 50" enable-background="new 0 0 50 50" xml:space="preserve">
<g>
	<circle fill="#435E2F" cx="25.001" cy="24.999" r="24.872"/>
	<path fill="#FFFFFF" d="M11.562,39.073l2.075-7.737c-1.174-2.118-1.792-4.492-1.792-6.9c0-7.877,6.409-14.286,14.286-14.286
		s14.287,6.409,14.287,14.286s-6.41,14.286-14.287,14.286c-2.366,0-4.701-0.599-6.791-1.731L11.562,39.073z M19.726,34.09
		l0.489,0.293c1.799,1.071,3.843,1.638,5.915,1.638c6.387,0,11.586-5.198,11.586-11.585c0-6.389-5.199-11.586-11.586-11.586
		c-6.389,0-11.586,5.198-11.586,11.586c0,2.109,0.586,4.187,1.694,6.006l0.3,0.494l-1.158,4.319L19.726,34.09z"/>
	<path fill-rule="evenodd" clip-rule="evenodd" fill="#FFFFFF" d="M31.443,26.422c-0.587-0.352-1.354-0.744-2.045-0.461
		c-0.53,0.218-0.871,1.05-1.215,1.475c-0.176,0.218-0.387,0.25-0.66,0.144c-1.994-0.797-3.522-2.128-4.624-3.962
		c-0.187-0.286-0.153-0.51,0.073-0.774c0.332-0.392,0.749-0.838,0.838-1.364c0.09-0.528-0.158-1.144-0.375-1.614
		c-0.278-0.602-0.589-1.457-1.19-1.798c-0.553-0.312-1.283-0.136-1.774,0.264c-0.851,0.693-1.261,1.778-1.247,2.853
		c0.003,0.306,0.04,0.611,0.111,0.905c0.172,0.709,0.5,1.373,0.868,2.002c0.279,0.475,0.581,0.934,0.907,1.379
		c1.066,1.448,2.394,2.708,3.932,3.649c0.769,0.471,1.596,0.883,2.452,1.166c0.962,0.317,1.817,0.648,2.855,0.45
		c1.083-0.205,2.156-0.877,2.585-1.923c0.128-0.312,0.192-0.656,0.123-0.984C32.908,27.151,31.99,26.749,31.443,26.422z"/>
</g>
</svg>
